<svg width="26" height="25" viewBox="0 0 26 25" fill="none" xmlns="http://www.w3.org/2000/svg">
<path d="M0 22.4359C0 23.8462 1.17 25 2.6 25H23.4C24.83 25 26 23.8462 26 22.4359V5.76923H20.0258C19.4122 2.49231 16.4983 0 13 0C9.5017 0 6.58775 2.49231 5.97415 5.76923H0V22.4359ZM13 1.28205C15.7787 1.28205 18.1058 3.20385 18.6992 5.76923H7.3008C7.89425 3.20385 10.2212 1.28205 13 1.28205ZM5.85 7.05128V10.8974H7.15V7.05128H18.85V10.8974H20.15V7.05128H24.7V22.4359C24.7 23.143 24.1169 23.7179 23.4 23.7179H2.6C1.88305 23.7179 1.3 23.143 1.3 22.4359V7.05128H5.85Z" fill="#EFE6E3"/>
</svg>
