<svg width="80" height="29" viewBox="0 0 80 29" fill="none" xmlns="http://www.w3.org/2000/svg">
<path fill-rule="evenodd" clip-rule="evenodd" d="M42.1598 0.572959C39.1304 0.895691 36.4868 2.19552 35.2367 3.97703C34.427 5.1309 34.1303 6.10454 34.0752 7.78884C34.0169 9.56813 34.2504 10.5521 35.002 11.6941C35.8438 12.9733 37.244 13.893 39.2624 14.4929C40.374 14.8232 42.2886 15.3109 43.5193 15.5772C47.8011 16.5038 49.9794 17.511 50.6196 18.8601C51.1801 20.0417 51.1268 21.825 50.4954 23.0099C49.6171 24.658 47.0125 25.6832 43.9754 25.5759C42.6321 25.5285 41.7402 25.3788 40.7327 25.0315C38.1347 24.136 36.7954 22.3928 36.5217 19.5508L36.4682 18.9941H36.0219H35.5756L35.5757 19.3972C35.5758 19.9188 35.76 20.971 35.9621 21.6048C36.6767 23.8456 38.3161 25.3281 40.923 26.0912C42.0981 26.4352 43.117 26.5422 44.7735 26.4957C46.4162 26.4497 47.0638 26.3366 48.2397 25.89C50.5183 25.0245 51.6801 23.613 51.9227 21.4148C52.1412 19.4347 51.4582 17.805 49.9866 16.7948C49.0828 16.1745 47.2313 15.4896 45.0396 14.9648C39.8201 13.715 38.8707 13.4451 37.8561 12.9226C37.1202 12.5437 36.9383 12.4157 36.4286 11.9184C35.8621 11.3657 35.4635 10.7255 35.22 9.9777C35.0371 9.41601 35.0178 9.24509 35.0157 8.16724C35.014 7.29311 35.0481 6.83654 35.1439 6.44785C35.3183 5.73996 35.7892 4.76509 36.1951 4.27112C37.1434 3.11726 38.9153 2.17517 41.0285 1.70133C42.0538 1.47143 45.1214 1.44932 46.1703 1.66432C48.1049 2.06076 49.5996 2.81526 50.6308 3.91584C51.6617 5.01618 52.1848 6.22848 52.3824 7.97528C52.4302 8.3976 52.4812 8.78637 52.4958 8.83912C52.5133 8.90247 52.6797 8.9351 52.9846 8.9351H53.4469L53.4009 8.45519C53.1843 6.19561 52.5793 4.63332 51.418 3.3348C50.6525 2.47894 49.2675 1.60704 47.9445 1.14832C46.3598 0.598836 44.062 0.370244 42.1598 0.572959ZM0 14.4637V27.9012H1.74837H3.49674V23.1916V18.4818L5.67286 16.3929C6.86966 15.2438 7.87847 14.3139 7.91465 14.3262C7.97265 14.3459 12.9254 21.3293 16.3055 26.1573L17.5217 27.8946L19.7452 27.8979C20.9681 27.8998 21.9687 27.8801 21.9687 27.8544C21.9687 27.8084 21.351 26.9477 18.8891 23.5628C18.2133 22.6337 16.0591 19.6621 14.1019 16.9592C12.1447 14.2564 10.507 11.9978 10.4623 11.9402C10.3688 11.8193 9.96055 12.227 15.6973 6.71223C17.9132 4.58211 20.0341 2.53768 20.4103 2.16903C20.7866 1.80046 21.2142 1.39303 21.3605 1.26373L21.6266 1.02861L19.3117 1.02738L16.9968 1.02615L16.005 2.0034C15.4595 2.54098 14.2264 3.75973 13.2648 4.7118C11.0765 6.87854 5.22786 12.6463 4.2379 13.614L3.49674 14.3384V7.68226V1.02615H1.74837H0V14.4637ZM25.0853 14.4637V27.9012H26.8337H28.5821V14.4637V1.02615H26.8337H25.0853V14.4637ZM56.6589 2.12035C57.6611 3.6672 63.471 12.5829 65.0026 14.9244L66.2834 16.8824L66.2847 22.3918L66.2861 27.9012H68.0345H69.7829V22.4139V16.9265L71.7337 13.9098C77.2665 5.35388 79.9451 1.20859 79.9967 1.12213C80.042 1.04634 79.6319 1.02615 78.044 1.02615H76.034L75.7289 1.50606C75.5611 1.77005 74.5095 3.47178 73.3921 5.28777C68.1932 13.7365 68.1638 13.7829 68.0687 13.6795C68.0187 13.6251 67.432 12.6995 66.765 11.6226C66.098 10.5457 64.3441 7.72096 62.8673 5.34536L60.1822 1.02615H58.0661H55.95L56.6589 2.12035ZM41.9492 2.57254C38.7607 2.94181 36.7243 4.70896 36.4895 7.31054C36.3519 8.83689 36.6876 9.91044 37.5637 10.7449C38.3369 11.4813 39.2113 11.999 40.2506 12.3357C41.2469 12.6586 41.5825 12.7418 44.1888 13.3116C47.0082 13.9281 47.6403 14.1003 48.8784 14.5885C50.6247 15.2772 51.5755 15.8955 52.2726 16.7955C53.198 17.9902 53.5672 19.1906 53.4918 20.7601C53.3936 22.8036 52.6322 24.2994 51.0269 25.6024C49.6434 26.7254 47.7579 27.3429 45.1938 27.5128C40.3689 27.8324 36.4558 26.1946 34.9343 23.2188C34.4002 22.1742 34.1064 20.9315 34.0353 19.4164L34.0172 19.0325H33.5611H33.105L33.1259 19.7235C33.276 24.7078 36.6872 27.8836 42.493 28.4443C43.61 28.5521 45.6145 28.4976 46.6739 28.3306C47.9567 28.1284 49.1626 27.7722 50.0579 27.331C51.027 26.8535 51.5099 26.5075 52.2889 25.7324C53.2689 24.7574 53.8673 23.7488 54.214 22.4878C54.3597 21.9578 54.3833 21.6787 54.3862 20.453C54.3893 19.1711 54.3722 18.9765 54.2112 18.4585C53.6497 16.6522 52.4081 15.2065 50.6648 14.3288C49.945 13.9664 48.4593 13.3864 47.6431 13.1491C47.2322 13.0296 45.7771 12.6866 44.4095 12.3868C40.8348 11.603 39.9957 11.344 39.1103 10.7509C37.8438 9.90268 37.485 9.35574 37.4181 8.17193C37.2867 5.84378 38.5935 4.27397 41.1711 3.66375C41.663 3.54726 42.0718 3.52246 43.4433 3.52615C45.0029 3.53029 45.1654 3.54419 45.8548 3.73239C47.3208 4.13253 48.5244 4.99652 49.1736 6.11475C49.4869 6.65425 49.817 7.62836 49.9406 8.37841L50.0324 8.9351H50.4904H50.9483L50.8963 8.49358C50.7273 7.06237 50.1936 5.76077 49.3607 4.74904C48.9938 4.30337 48.1452 3.6467 47.5468 3.34547C46.1551 2.64487 43.9519 2.34065 41.9492 2.57254Z" fill="#EFE6E3"/>
</svg>
