<svg width="24" height="24" viewBox="0 0 24 24" fill="none" xmlns="http://www.w3.org/2000/svg">
<path d="M8.62137 17.9612C10.7804 17.9612 12.7492 17.1286 14.2616 15.7629L22.1692 24L23.04 23.093L15.1324 14.8558C16.4434 13.2804 17.2427 11.2296 17.2427 8.9806C17.2427 4.02074 13.3828 0 8.62137 0C3.85991 0 0 4.02074 0 8.9806C0 13.9405 3.85991 17.9612 8.62137 17.9612ZM8.62137 1.28294C12.6962 1.28294 16.0111 4.73598 16.0111 8.9806C16.0111 13.2252 12.6962 16.6782 8.62137 16.6782C4.54654 16.6782 1.23162 13.2252 1.23162 8.9806C1.23162 4.73598 4.54654 1.28294 8.62137 1.28294Z" fill="#EFE6E3"/>
</svg>
