<svg width="41" height="41" viewBox="0 0 41 41" fill="none" xmlns="http://www.w3.org/2000/svg">
<path d="M20.5 41C31.8218 41 41 31.8218 41 20.5C41 9.17816 31.8218 0 20.5 0C9.17816 0 0 9.17816 0 20.5C0 31.8218 9.17816 41 20.5 41Z" fill="url(#paint0_linear_851_2211)"/>
<path fill-rule="evenodd" clip-rule="evenodd" d="M9.27948 20.2836C15.2557 17.6799 19.2407 15.9633 21.2346 15.134C26.9277 12.7661 28.1107 12.3547 28.8817 12.3411C29.0513 12.3382 29.4305 12.3802 29.6761 12.5795C29.8835 12.7478 29.9405 12.9751 29.9678 13.1346C29.9951 13.2942 30.0292 13.6577 30.0021 13.9417C29.6936 17.1832 28.3587 25.0495 27.6796 28.6801C27.3922 30.2163 26.8264 30.7314 26.2786 30.7818C25.0881 30.8914 24.1841 29.9951 23.0311 29.2393C21.2268 28.0565 20.2075 27.3203 18.4562 26.1662C16.4322 24.8324 17.7443 24.0993 18.8977 22.9013C19.1996 22.5878 24.4448 17.8168 24.5464 17.384C24.5591 17.3299 24.5708 17.1281 24.451 17.0216C24.3311 16.915 24.1542 16.9515 24.0265 16.9804C23.8456 17.0215 20.9632 18.9266 15.3795 22.6958C14.5614 23.2576 13.8203 23.5313 13.1564 23.517C12.4244 23.5012 11.0164 23.1031 9.96973 22.7629C8.68591 22.3456 7.66556 22.1249 7.75441 21.4162C7.80069 21.047 8.30905 20.6695 9.27948 20.2836Z" fill="black"/>
<defs>
<linearGradient id="paint0_linear_851_2211" x1="20.5" y1="0" x2="20.5" y2="40.6959" gradientUnits="userSpaceOnUse">
<stop stop-color="white"/>
<stop offset="1" stop-color="white"/>
</linearGradient>
</defs>
</svg>
